<mxfile host="app.diagrams.net" modified="2023-04-30T13:52:21.803Z" agent="Mozilla/5.0 (Windows NT 10.0; Win64; x64) AppleWebKit/537.36 (KHTML, like Gecko) Chrome/112.0.0.0 Safari/537.36" etag="w0Gejs1ssOQ_W2aLLbIu" version="21.2.3" type="device">
  <diagram name="Page-1" id="2YBvvXClWsGukQMizWep">
    <mxGraphModel dx="1284" dy="703" grid="1" gridSize="10" guides="1" tooltips="1" connect="1" arrows="1" fold="1" page="1" pageScale="1" pageWidth="850" pageHeight="1100" math="0" shadow="0">
      <root>
        <mxCell id="0" />
        <mxCell id="1" parent="0" />
        <mxCell id="aM9ryv3xv72pqoxQDRHE-1" value="User" style="shape=umlLifeline;perimeter=lifelinePerimeter;whiteSpace=wrap;html=1;container=0;dropTarget=0;collapsible=0;recursiveResize=0;outlineConnect=0;portConstraint=eastwest;newEdgeStyle={&quot;edgeStyle&quot;:&quot;elbowEdgeStyle&quot;,&quot;elbow&quot;:&quot;vertical&quot;,&quot;curved&quot;:0,&quot;rounded&quot;:0};" parent="1" vertex="1">
          <mxGeometry x="40" y="40" width="100" height="420" as="geometry" />
        </mxCell>
        <mxCell id="mqPKHSbgi2pZSmoaDszr-6" value="" style="html=1;points=[];perimeter=orthogonalPerimeter;outlineConnect=0;targetShapes=umlLifeline;portConstraint=eastwest;newEdgeStyle={&quot;edgeStyle&quot;:&quot;elbowEdgeStyle&quot;,&quot;elbow&quot;:&quot;vertical&quot;,&quot;curved&quot;:0,&quot;rounded&quot;:0};" parent="aM9ryv3xv72pqoxQDRHE-1" vertex="1">
          <mxGeometry x="45" y="140" width="10" height="40" as="geometry" />
        </mxCell>
        <mxCell id="aM9ryv3xv72pqoxQDRHE-5" value="System" style="shape=umlLifeline;perimeter=lifelinePerimeter;whiteSpace=wrap;html=1;container=0;dropTarget=0;collapsible=0;recursiveResize=0;outlineConnect=0;portConstraint=eastwest;newEdgeStyle={&quot;edgeStyle&quot;:&quot;elbowEdgeStyle&quot;,&quot;elbow&quot;:&quot;vertical&quot;,&quot;curved&quot;:0,&quot;rounded&quot;:0};" parent="1" vertex="1">
          <mxGeometry x="230" y="40" width="100" height="420" as="geometry" />
        </mxCell>
        <mxCell id="aM9ryv3xv72pqoxQDRHE-6" value="" style="html=1;points=[];perimeter=orthogonalPerimeter;outlineConnect=0;targetShapes=umlLifeline;portConstraint=eastwest;newEdgeStyle={&quot;edgeStyle&quot;:&quot;elbowEdgeStyle&quot;,&quot;elbow&quot;:&quot;vertical&quot;,&quot;curved&quot;:0,&quot;rounded&quot;:0};" parent="aM9ryv3xv72pqoxQDRHE-5" vertex="1">
          <mxGeometry x="45" y="90" width="10" height="50" as="geometry" />
        </mxCell>
        <mxCell id="mqPKHSbgi2pZSmoaDszr-10" value="" style="html=1;points=[];perimeter=orthogonalPerimeter;outlineConnect=0;targetShapes=umlLifeline;portConstraint=eastwest;newEdgeStyle={&quot;edgeStyle&quot;:&quot;elbowEdgeStyle&quot;,&quot;elbow&quot;:&quot;vertical&quot;,&quot;curved&quot;:0,&quot;rounded&quot;:0};" parent="aM9ryv3xv72pqoxQDRHE-5" vertex="1">
          <mxGeometry x="45" y="180" width="10" height="40" as="geometry" />
        </mxCell>
        <mxCell id="mqPKHSbgi2pZSmoaDszr-1" value="Account" style="shape=umlLifeline;perimeter=lifelinePerimeter;whiteSpace=wrap;html=1;container=0;dropTarget=0;collapsible=0;recursiveResize=0;outlineConnect=0;portConstraint=eastwest;newEdgeStyle={&quot;edgeStyle&quot;:&quot;elbowEdgeStyle&quot;,&quot;elbow&quot;:&quot;vertical&quot;,&quot;curved&quot;:0,&quot;rounded&quot;:0};" parent="1" vertex="1">
          <mxGeometry x="420" y="40" width="100" height="420" as="geometry" />
        </mxCell>
        <mxCell id="mqPKHSbgi2pZSmoaDszr-18" value="" style="endArrow=classic;html=1;rounded=0;" parent="mqPKHSbgi2pZSmoaDszr-1" source="mqPKHSbgi2pZSmoaDszr-1" target="mqPKHSbgi2pZSmoaDszr-20" edge="1">
          <mxGeometry relative="1" as="geometry">
            <mxPoint x="-125" y="230" as="sourcePoint" />
            <mxPoint x="55" y="230" as="targetPoint" />
            <Array as="points">
              <mxPoint x="70" y="270" />
              <mxPoint x="100" y="270" />
              <mxPoint x="100" y="310" />
            </Array>
          </mxGeometry>
        </mxCell>
        <mxCell id="mqPKHSbgi2pZSmoaDszr-19" value="Reset password" style="edgeLabel;resizable=0;html=1;align=center;verticalAlign=middle;" parent="mqPKHSbgi2pZSmoaDszr-18" connectable="0" vertex="1">
          <mxGeometry relative="1" as="geometry">
            <mxPoint x="20" y="2" as="offset" />
          </mxGeometry>
        </mxCell>
        <mxCell id="mqPKHSbgi2pZSmoaDszr-20" value="" style="html=1;points=[];perimeter=orthogonalPerimeter;outlineConnect=0;targetShapes=umlLifeline;portConstraint=eastwest;newEdgeStyle={&quot;edgeStyle&quot;:&quot;elbowEdgeStyle&quot;,&quot;elbow&quot;:&quot;vertical&quot;,&quot;curved&quot;:0,&quot;rounded&quot;:0};" parent="mqPKHSbgi2pZSmoaDszr-1" vertex="1">
          <mxGeometry x="45" y="300" width="10" height="40" as="geometry" />
        </mxCell>
        <mxCell id="mqPKHSbgi2pZSmoaDszr-3" value="" style="endArrow=classic;html=1;rounded=0;" parent="1" source="aM9ryv3xv72pqoxQDRHE-1" target="aM9ryv3xv72pqoxQDRHE-6" edge="1">
          <mxGeometry relative="1" as="geometry">
            <mxPoint x="95" y="130" as="sourcePoint" />
            <mxPoint x="500" y="170" as="targetPoint" />
            <Array as="points">
              <mxPoint x="190" y="130" />
            </Array>
          </mxGeometry>
        </mxCell>
        <mxCell id="mqPKHSbgi2pZSmoaDszr-4" value="Reset password request" style="edgeLabel;resizable=0;html=1;align=center;verticalAlign=middle;" parent="mqPKHSbgi2pZSmoaDszr-3" connectable="0" vertex="1">
          <mxGeometry relative="1" as="geometry" />
        </mxCell>
        <mxCell id="mqPKHSbgi2pZSmoaDszr-7" value="" style="endArrow=classic;html=1;rounded=0;" parent="1" source="aM9ryv3xv72pqoxQDRHE-6" target="mqPKHSbgi2pZSmoaDszr-6" edge="1">
          <mxGeometry relative="1" as="geometry">
            <mxPoint x="340" y="170" as="sourcePoint" />
            <mxPoint x="500" y="170" as="targetPoint" />
          </mxGeometry>
        </mxCell>
        <mxCell id="mqPKHSbgi2pZSmoaDszr-8" value="Input email request" style="edgeLabel;resizable=0;html=1;align=center;verticalAlign=middle;" parent="mqPKHSbgi2pZSmoaDszr-7" connectable="0" vertex="1">
          <mxGeometry relative="1" as="geometry" />
        </mxCell>
        <mxCell id="mqPKHSbgi2pZSmoaDszr-11" value="" style="endArrow=classic;html=1;rounded=0;" parent="1" source="mqPKHSbgi2pZSmoaDszr-6" target="mqPKHSbgi2pZSmoaDszr-10" edge="1">
          <mxGeometry relative="1" as="geometry">
            <mxPoint x="140" y="300" as="sourcePoint" />
            <mxPoint x="300" y="300" as="targetPoint" />
          </mxGeometry>
        </mxCell>
        <mxCell id="mqPKHSbgi2pZSmoaDszr-12" value="Input email" style="edgeLabel;resizable=0;html=1;align=center;verticalAlign=middle;" parent="mqPKHSbgi2pZSmoaDszr-11" connectable="0" vertex="1">
          <mxGeometry relative="1" as="geometry" />
        </mxCell>
        <mxCell id="mqPKHSbgi2pZSmoaDszr-15" value="" style="endArrow=classic;html=1;rounded=0;" parent="1" edge="1">
          <mxGeometry relative="1" as="geometry">
            <mxPoint x="285" y="260" as="sourcePoint" />
            <mxPoint x="469.5" y="260" as="targetPoint" />
          </mxGeometry>
        </mxCell>
        <mxCell id="mqPKHSbgi2pZSmoaDszr-16" value="Send email" style="edgeLabel;resizable=0;html=1;align=center;verticalAlign=middle;" parent="mqPKHSbgi2pZSmoaDszr-15" connectable="0" vertex="1">
          <mxGeometry relative="1" as="geometry" />
        </mxCell>
        <mxCell id="mqPKHSbgi2pZSmoaDszr-23" value="" style="endArrow=classic;html=1;rounded=0;" parent="1" source="mqPKHSbgi2pZSmoaDszr-20" target="aM9ryv3xv72pqoxQDRHE-5" edge="1">
          <mxGeometry relative="1" as="geometry">
            <mxPoint x="295" y="270" as="sourcePoint" />
            <mxPoint x="285" y="420" as="targetPoint" />
            <Array as="points">
              <mxPoint x="430" y="380" />
            </Array>
          </mxGeometry>
        </mxCell>
        <mxCell id="mqPKHSbgi2pZSmoaDszr-24" value="Return reset result" style="edgeLabel;resizable=0;html=1;align=center;verticalAlign=middle;" parent="mqPKHSbgi2pZSmoaDszr-23" connectable="0" vertex="1">
          <mxGeometry relative="1" as="geometry" />
        </mxCell>
        <mxCell id="mqPKHSbgi2pZSmoaDszr-25" value="" style="endArrow=classic;html=1;rounded=0;" parent="1" source="aM9ryv3xv72pqoxQDRHE-5" target="aM9ryv3xv72pqoxQDRHE-1" edge="1">
          <mxGeometry relative="1" as="geometry">
            <mxPoint x="475" y="430" as="sourcePoint" />
            <mxPoint x="295" y="430" as="targetPoint" />
            <Array as="points">
              <mxPoint x="270" y="420" />
              <mxPoint x="250" y="420" />
            </Array>
          </mxGeometry>
        </mxCell>
        <mxCell id="mqPKHSbgi2pZSmoaDszr-26" value="Return notification" style="edgeLabel;resizable=0;html=1;align=center;verticalAlign=middle;" parent="mqPKHSbgi2pZSmoaDszr-25" connectable="0" vertex="1">
          <mxGeometry relative="1" as="geometry" />
        </mxCell>
      </root>
    </mxGraphModel>
  </diagram>
</mxfile>
